<svg id="Layer_1" data-name="Layer 1" xmlns="http://www.w3.org/2000/svg" viewBox="0 0 688 688"><defs><style>.cls-1{fill:none;stroke:#47ed87;stroke-miterlimit:10;stroke-width:16px;}</style></defs><rect class="cls-1" x="173.92" y="173.67" width="340.17" height="340.67" rx="16"/><rect class="cls-1" x="258.73" y="355.7" width="170.54" height="96.07" rx="8"/><path class="cls-1" d="M456,516.24V452.17a32.09,32.09,0,0,1,32-32H536a32.09,32.09,0,0,1,32,32v64.07" transform="translate(-168 -168)"/><line class="cls-1" x1="342.8" y1="170.98" x2="342.8" y2="79.34"/><ellipse class="cls-1" cx="344" cy="61.51" rx="15.91" ry="15.94"/><ellipse class="cls-1" cx="500.32" cy="23.94" rx="15.91" ry="15.94"/><path class="cls-1" d="M653.4,206.89l-47.71,47.77c-6.21,6.23-11.3,18.52-11.3,27.32V337.7" transform="translate(-168 -168)"/><ellipse class="cls-1" cx="187.68" cy="23.94" rx="15.91" ry="15.94"/><path class="cls-1" d="M370.6,206.89l47.71,47.77c6.21,6.23,11.3,18.52,11.3,27.32V337.7" transform="translate(-168 -168)"/><line class="cls-1" x1="342.8" y1="517.02" x2="342.8" y2="608.66"/><ellipse class="cls-1" cx="344" cy="626.49" rx="15.91" ry="15.94"/><ellipse class="cls-1" cx="500.32" cy="664.06" rx="15.91" ry="15.94"/><path class="cls-1" d="M653.4,817.11l-47.71-47.77c-6.21-6.23-11.3-18.52-11.3-27.32V686.3" transform="translate(-168 -168)"/><ellipse class="cls-1" cx="187.68" cy="664.06" rx="15.91" ry="15.94"/><path class="cls-1" d="M370.6,817.11l47.71-47.77c6.21-6.23,11.3-18.52,11.3-27.32V686.3" transform="translate(-168 -168)"/><line class="cls-1" x1="517.25" y1="345.2" x2="608.76" y2="345.2"/><ellipse class="cls-1" cx="626.57" cy="344" rx="15.91" ry="15.94"/><ellipse class="cls-1" cx="664.09" cy="187.45" rx="15.91" ry="15.94"/><path class="cls-1" d="M817.16,370.4l-47.7,47.77c-6.22,6.22-18.51,11.32-27.31,11.32H686.54" transform="translate(-168 -168)"/><ellipse class="cls-1" cx="664.09" cy="500.55" rx="15.91" ry="15.94"/><path class="cls-1" d="M817.16,653.6l-47.7-47.77c-6.22-6.22-18.51-11.32-27.31-11.32H686.54" transform="translate(-168 -168)"/><line class="cls-1" x1="170.75" y1="345.2" x2="79.24" y2="345.2"/><ellipse class="cls-1" cx="61.43" cy="344" rx="15.91" ry="15.94"/><ellipse class="cls-1" cx="23.91" cy="187.45" rx="15.91" ry="15.94"/><path class="cls-1" d="M206.84,370.4l47.7,47.77c6.22,6.22,18.51,11.32,27.31,11.32h55.61" transform="translate(-168 -168)"/><ellipse class="cls-1" cx="23.91" cy="500.55" rx="15.91" ry="15.94"/><path class="cls-1" d="M206.84,653.6l47.7-47.77c6.22-6.22,18.51-11.32,27.31-11.32h55.61" transform="translate(-168 -168)"/><ellipse class="cls-1" cx="542.93" cy="543.22" rx="15.91" ry="15.94"/><ellipse class="cls-1" cx="145.07" cy="543.22" rx="15.91" ry="15.94"/><ellipse class="cls-1" cx="542.93" cy="144.78" rx="15.91" ry="15.94"/><ellipse class="cls-1" cx="145.07" cy="144.78" rx="15.91" ry="15.94"/></svg>