<svg xmlns="http://www.w3.org/2000/svg" viewBox="0 0 272 272"><defs><style>.a{fill:#8ce18a;}</style></defs><path class="a" d="M291,248.79c-2.75,5.68-2.75,15,0,20.67s1.86,16.81-2,24.74L283,306.73c-3.83,7.92-14.17,14.4-23,14.4h-8c-8.8,0-19.14-6.48-23-14.4L223,294.2c-3.83-7.93-4.72-19.06-2-24.74s2.75-15,0-20.67-1.86-16.82,2-24.74L229,211.53c3.83-7.92,14.17-14.4,23-14.4h8c8.8,0,19.14,6.48,23,14.4L289,224.05C292.86,232,293.75,243.1,291,248.79Z" transform="translate(-120 -120)"/><path class="a" d="M256,120A136,136,0,1,0,392,256,136,136,0,0,0,256,120Zm64,156.44c4.4,7.62,4.4,20.1,0,27.72L300,338.8c-4.4,7.62-15.2,13.86-24,13.86H236c-8.8,0-19.6-6.24-24-13.86l-20-34.64c-4.4-7.62-4.4-20.1,0-27.72l2-3.46c4.4-7.62,4.4-20.1,0-27.72l-2-3.46c-4.4-7.62-4.4-20.1,0-27.72l20-34.62c4.4-7.62,15.2-13.86,24-13.86h40c8.8,0,19.6,6.24,24,13.86l20,34.62c4.4,7.62,4.4,20.1,0,27.72l-2,3.46c-4.4,7.62-4.4,20.1,0,27.72Z" transform="translate(-120 -120)"/></svg>