<svg xmlns="http://www.w3.org/2000/svg" viewBox="0 0 256 328"><defs><style>.a{fill:#8ce18a;}</style></defs><path class="a" d="M384,104v20H128V104a12,12,0,0,1,12-12H372A12,12,0,0,1,384,104Z" transform="translate(-128 -92)"/><path class="a" d="M384,388v20a12,12,0,0,1-12,12H140a12,12,0,0,1-12-12V388Z" transform="translate(-128 -92)"/><path class="a" d="M128,132V380H384V132ZM320,324a12,12,0,0,1-12,12H204a12,12,0,0,1-12-12V264a12,12,0,0,1,12-12h10V192a12,12,0,0,1,12-12h60a12,12,0,0,1,12,12v60h10a12,12,0,0,1,12,12Z" transform="translate(-128 -92)"/><rect class="a" x="72" y="169" width="112" height="68" rx="10.5"/><path class="a" d="M107,95.93h42a12,12,0,0,1,12,12v52a0,0,0,0,1,0,0H95a0,0,0,0,1,0,0v-52A12,12,0,0,1,107,95.93Z"/></svg>