<svg xmlns="http://www.w3.org/2000/svg" viewBox="0 0 322.46 321.12"><defs><style>.a{fill:#8ce18a;}.b{fill:#1a1e1a;}</style></defs><path class="a" d="M326.73,114.43,254.31,239.87l36.26,20.93L204.94,409.12A160,160,0,0,0,333.2,118Q330,116.13,326.73,114.43Z" transform="translate(-98.77 -95.44)"/><path class="a" d="M185.27,397.57l72.42-125.44L221.43,251.2l85.63-148.32A160,160,0,0,0,178.8,394Q182,395.88,185.27,397.57Z" transform="translate(-98.77 -95.44)"/><path class="b" d="M334.73,114.43,262.31,239.87l36.26,20.93L212.94,409.12A160,160,0,0,0,341.2,118Q338,116.13,334.73,114.43Z" transform="translate(-98.77 -95.44)"/><path class="b" d="M193.27,397.57l72.42-125.44L229.43,251.2l85.63-148.32A160,160,0,0,0,186.8,394Q190,395.88,193.27,397.57Z" transform="translate(-98.77 -95.44)"/></svg>