<svg xmlns="http://www.w3.org/2000/svg" viewBox="0 0 214.6 290.98"><defs><style>.a{fill:#8ce18a;}</style></defs><path class="a" d="M290.68,244.9c-2.75,5.68-2.75,15,0,20.66s1.87,16.82-2,24.74l-6.06,12.53c-3.83,7.93-14.17,14.41-23,14.41h-8c-8.8,0-19.13-6.48-23-14.41l-6.06-12.53c-3.83-7.92-4.72-19.05-2-24.74s2.75-15,0-20.66-1.86-16.82,2-24.74l6.06-12.52c3.83-7.92,14.17-14.4,23-14.4h8c8.8,0,19.14,6.48,23,14.4l6.06,12.52C292.54,228.08,293.43,239.21,290.68,244.9Z" transform="translate(-148.7 -110.51)"/><path class="a" d="M360,221.34c4.4-7.62,4.4-20.09,0-27.71l-40-69.27c-4.4-7.62-15.2-13.85-24-13.85H216c-8.8,0-19.6,6.23-24,13.85l-40,69.27c-4.4,7.62-4.4,20.09,0,27.71l12,20.79c4.4,7.62,4.4,20.09,0,27.71l-12,20.79c-4.4,7.62-4.4,20.09,0,27.71l40,69.29c4.4,7.63,15.2,13.86,24,13.86h80c8.8,0,19.6-6.23,24-13.86l40-69.29c4.4-7.62,4.4-20.09,0-27.71l-12-20.79c-4.4-7.62-4.4-20.09,0-27.71Zm-48.75,52.39c3.84,7.93,3.84,20.89,0,28.81L294.08,338c-3.83,7.92-14.17,14.4-23,14.4H240.89c-8.8,0-19.14-6.48-23-14.4l-17.17-35.5c-3.84-7.92-3.84-20.88,0-28.81l1.62-3.34c3.83-7.92,3.83-20.89,0-28.81l-1.62-3.35c-3.84-7.92-3.84-20.88,0-28.8L217.92,174c3.83-7.92,14.17-14.4,23-14.4h30.22c8.8,0,19.14,6.48,23,14.4l17.17,35.47c3.84,7.92,3.84,20.88,0,28.8l-1.62,3.35c-3.83,7.92-3.83,20.89,0,28.81Z" transform="translate(-148.7 -110.51)"/></svg>