<svg xmlns="http://www.w3.org/2000/svg" viewBox="0 0 256 256"><defs><style>.a{fill:#8ce18a;}</style></defs><path class="a" d="M282,238.43v35.14H230V238.43c0-3.86,2.75-7,6.12-7h39.76C279.25,231.4,282,234.57,282,238.43Z" transform="translate(-128 -128)"/><path class="a" d="M304,298.33V325.1a6.81,6.81,0,0,1-6.86,6.7H214.86a6.81,6.81,0,0,1-6.86-6.7V298.33a6.8,6.8,0,0,1,6.86-6.69h82.28A6.8,6.8,0,0,1,304,298.33Z" transform="translate(-128 -128)"/><path class="a" d="M128,347.86A36.17,36.17,0,0,0,164,384H348a36.17,36.17,0,0,0,36-36.14V175.18H128Zm64-52.21a16.08,16.08,0,0,1,16-16.06h6V231.4a16.08,16.08,0,0,1,16-16.06h52a16.08,16.08,0,0,1,16,16.06v48.19h6a16.08,16.08,0,0,1,16,16.06v32.13a16.08,16.08,0,0,1-16,16.06H208a16.08,16.08,0,0,1-16-16.06Z" transform="translate(-128 -128)"/><path class="a" d="M32,0H224a32,32,0,0,1,32,32v.13a0,0,0,0,1,0,0H0a0,0,0,0,1,0,0V32A32,32,0,0,1,32,0Z"/></svg>